<mxfile host="app.diagrams.net" modified="2024-01-04T14:09:37.116Z" agent="Mozilla/5.0 (Windows NT 10.0; Win64; x64) AppleWebKit/537.36 (KHTML, like Gecko) Chrome/120.0.0.0 Safari/537.36" etag="uUFEZXJX6kW9O3zOMkAv" version="22.1.16" type="github">
  <diagram name="PÃ¡gina-1" id="4o_y28Qx3Zz9WGiGOu8f">
    <mxGraphModel dx="1235" dy="813" grid="1" gridSize="10" guides="1" tooltips="1" connect="1" arrows="1" fold="1" page="1" pageScale="1" pageWidth="1169" pageHeight="827" background="#000000" math="0" shadow="1">
      <root>
        <mxCell id="0" />
        <mxCell id="1" parent="0" />
        <mxCell id="63qLR-Xfm-PJ3_UfegTe-42" style="edgeStyle=orthogonalEdgeStyle;rounded=0;orthogonalLoop=1;jettySize=auto;html=1;exitX=0.5;exitY=1;exitDx=0;exitDy=0;entryX=0.5;entryY=0;entryDx=0;entryDy=0;flowAnimation=1;fillColor=#ffcd28;strokeColor=#d79b00;strokeWidth=3;gradientColor=#ffa500;shadow=0;" parent="1" source="63qLR-Xfm-PJ3_UfegTe-5" target="63qLR-Xfm-PJ3_UfegTe-6" edge="1">
          <mxGeometry relative="1" as="geometry" />
        </mxCell>
        <mxCell id="63qLR-Xfm-PJ3_UfegTe-5" value="&lt;b&gt;&lt;font color=&quot;#f7f7fc&quot; style=&quot;font-size: 14px;&quot;&gt;Data origin&lt;/font&gt;&lt;/b&gt;" style="rounded=1;whiteSpace=wrap;html=1;fillColor=#6a00ff;strokeColor=#3700CC;glass=1;shadow=1;fillStyle=solid;gradientDirection=south;fontColor=#ffffff;" parent="1" vertex="1">
          <mxGeometry x="30" y="200" width="120" height="80" as="geometry" />
        </mxCell>
        <mxCell id="63qLR-Xfm-PJ3_UfegTe-6" value="" style="rounded=1;whiteSpace=wrap;html=1;fillColor=#dae8fc;strokeColor=#6c8ebf;gradientColor=none;glass=1;shadow=1;gradientDirection=north;" parent="1" vertex="1">
          <mxGeometry x="30" y="340" width="120" height="460" as="geometry" />
        </mxCell>
        <mxCell id="63qLR-Xfm-PJ3_UfegTe-11" value="ETL" style="rounded=1;whiteSpace=wrap;html=1;fillColor=#fff2cc;strokeColor=#d6b656;align=center;gradientColor=#FFFF99;verticalAlign=top;horizontal=1;gradientDirection=south;glass=1;shadow=1;" parent="1" vertex="1">
          <mxGeometry x="240" y="340" width="200" height="460" as="geometry" />
        </mxCell>
        <mxCell id="63qLR-Xfm-PJ3_UfegTe-12" value="" style="rounded=1;whiteSpace=wrap;html=1;fillColor=#f8cecc;strokeColor=#b85450;gradientColor=none;glass=1;shadow=1;" parent="1" vertex="1">
          <mxGeometry x="510" y="170" width="150" height="630" as="geometry" />
        </mxCell>
        <mxCell id="63qLR-Xfm-PJ3_UfegTe-13" value="" style="rounded=1;whiteSpace=wrap;html=1;gradientDirection=south;noLabel=0;portConstraintRotation=0;snapToPoint=0;fillColor=#d5e8d4;gradientColor=#97d077;strokeColor=#82b366;shadow=1;glass=1;" parent="1" vertex="1">
          <mxGeometry x="710" y="165" width="240" height="630" as="geometry" />
        </mxCell>
        <mxCell id="63qLR-Xfm-PJ3_UfegTe-14" value="" style="rounded=1;whiteSpace=wrap;html=1;fillColor=#d0cee2;strokeColor=#56517e;gradientColor=none;gradientDirection=north;glass=1;shadow=1;" parent="1" vertex="1">
          <mxGeometry x="1010" y="170" width="140" height="630" as="geometry" />
        </mxCell>
        <mxCell id="63qLR-Xfm-PJ3_UfegTe-16" value="&lt;b&gt;&lt;font style=&quot;font-size: 14px;&quot;&gt;Staging Area&lt;br&gt;&lt;/font&gt;&lt;font style=&quot;font-size: 14px;&quot;&gt;Operation Data Store&lt;/font&gt;&lt;/b&gt;" style="rounded=1;whiteSpace=wrap;html=1;fillColor=#6a00ff;strokeColor=#3700CC;glass=1;shadow=1;fillStyle=solid;gradientDirection=south;fontColor=#ffffff;" parent="1" vertex="1">
          <mxGeometry x="510" y="40" width="150" height="80" as="geometry" />
        </mxCell>
        <mxCell id="63qLR-Xfm-PJ3_UfegTe-17" value="&lt;font style=&quot;font-size: 14px;&quot;&gt;&lt;b&gt;Administration of Warehouse&lt;br&gt;and&lt;br&gt;Specific Components&lt;/b&gt;&lt;/font&gt;" style="rounded=1;whiteSpace=wrap;html=1;fillColor=#6a00ff;strokeColor=#3700CC;glass=1;shadow=1;fillStyle=solid;gradientDirection=south;fontColor=#ffffff;" parent="1" vertex="1">
          <mxGeometry x="710" y="40" width="240" height="80" as="geometry" />
        </mxCell>
        <mxCell id="63qLR-Xfm-PJ3_UfegTe-18" value="&lt;b&gt;&lt;font style=&quot;font-size: 14px;&quot;&gt;Front End&lt;br&gt;Administration&lt;/font&gt;&lt;/b&gt;" style="rounded=1;whiteSpace=wrap;html=1;fillColor=#6a00ff;strokeColor=#3700CC;glass=1;shadow=1;fillStyle=solid;gradientDirection=south;fontColor=#ffffff;" parent="1" vertex="1">
          <mxGeometry x="1010" y="40" width="120" height="80" as="geometry" />
        </mxCell>
        <mxCell id="63qLR-Xfm-PJ3_UfegTe-35" value="" style="edgeStyle=orthogonalEdgeStyle;rounded=0;orthogonalLoop=1;jettySize=auto;html=1;fillColor=#dae8fc;strokeColor=#6c8ebf;flowAnimation=1;strokeWidth=3;gradientColor=#7ea6e0;" parent="1" source="63qLR-Xfm-PJ3_UfegTe-19" target="63qLR-Xfm-PJ3_UfegTe-11" edge="1">
          <mxGeometry relative="1" as="geometry">
            <Array as="points">
              <mxPoint x="200" y="395" />
              <mxPoint x="200" y="395" />
            </Array>
          </mxGeometry>
        </mxCell>
        <mxCell id="63qLR-Xfm-PJ3_UfegTe-19" value="&lt;b&gt;&lt;font color=&quot;#000033&quot; style=&quot;font-size: 14px;&quot;&gt;Data Departments&lt;/font&gt;&lt;/b&gt;" style="rounded=1;whiteSpace=wrap;html=1;fillColor=#dae8fc;strokeColor=#6c8ebf;glass=1;shadow=1;gradientColor=#7ea6e0;gradientDirection=south;" parent="1" vertex="1">
          <mxGeometry x="40" y="370" width="100" height="50" as="geometry" />
        </mxCell>
        <mxCell id="63qLR-Xfm-PJ3_UfegTe-20" value="&lt;b&gt;&lt;font color=&quot;#000033&quot; style=&quot;font-size: 14px;&quot;&gt;Legacy &lt;br&gt;Data&lt;/font&gt;&lt;/b&gt;" style="rounded=1;whiteSpace=wrap;html=1;fillColor=#dae8fc;strokeColor=#6c8ebf;glass=1;shadow=1;gradientColor=#7ea6e0;gradientDirection=south;" parent="1" vertex="1">
          <mxGeometry x="40" y="440" width="100" height="50" as="geometry" />
        </mxCell>
        <mxCell id="63qLR-Xfm-PJ3_UfegTe-21" value="&lt;b&gt;&lt;font color=&quot;#000033&quot; style=&quot;font-size: 14px;&quot;&gt;ERP + CRM&lt;/font&gt;&lt;/b&gt;" style="rounded=1;whiteSpace=wrap;html=1;fillColor=#dae8fc;strokeColor=#6c8ebf;glass=1;shadow=1;gradientColor=#7ea6e0;gradientDirection=south;" parent="1" vertex="1">
          <mxGeometry x="40" y="510" width="100" height="50" as="geometry" />
        </mxCell>
        <mxCell id="63qLR-Xfm-PJ3_UfegTe-22" value="&lt;b&gt;&lt;font color=&quot;#000033&quot; style=&quot;font-size: 14px;&quot;&gt;External&lt;br&gt;Sources&lt;br&gt;&lt;/font&gt;&lt;/b&gt;" style="rounded=1;whiteSpace=wrap;html=1;fillColor=#dae8fc;strokeColor=#6c8ebf;glass=1;shadow=1;gradientColor=#7ea6e0;gradientDirection=south;" parent="1" vertex="1">
          <mxGeometry x="40" y="580" width="100" height="50" as="geometry" />
        </mxCell>
        <mxCell id="63qLR-Xfm-PJ3_UfegTe-23" value="&lt;b&gt;&lt;font color=&quot;#000033&quot; style=&quot;font-size: 14px;&quot;&gt;Excel&lt;/font&gt;&lt;/b&gt;" style="rounded=1;whiteSpace=wrap;html=1;fillColor=#dae8fc;strokeColor=#6c8ebf;glass=1;shadow=1;gradientColor=#7ea6e0;gradientDirection=south;" parent="1" vertex="1">
          <mxGeometry x="40" y="650" width="100" height="50" as="geometry" />
        </mxCell>
        <mxCell id="63qLR-Xfm-PJ3_UfegTe-24" value="&lt;b&gt;&lt;font color=&quot;#000033&quot; style=&quot;font-size: 14px;&quot;&gt;Flat&lt;br&gt;Files&lt;br&gt;&lt;/font&gt;&lt;/b&gt;" style="rounded=1;whiteSpace=wrap;html=1;fillColor=#dae8fc;strokeColor=#6c8ebf;glass=1;shadow=1;gradientColor=#7ea6e0;gradientDirection=south;" parent="1" vertex="1">
          <mxGeometry x="40" y="720" width="100" height="50" as="geometry" />
        </mxCell>
        <mxCell id="63qLR-Xfm-PJ3_UfegTe-25" value="&lt;font style=&quot;font-size: 14px;&quot;&gt;&lt;b&gt;ETL Administration &lt;br&gt;and &lt;br&gt;Quality control&lt;/b&gt;&lt;/font&gt;" style="rounded=1;whiteSpace=wrap;html=1;fillColor=#6a00ff;strokeColor=#3700CC;glass=1;shadow=1;fillStyle=solid;gradientDirection=south;fontColor=#ffffff;" parent="1" vertex="1">
          <mxGeometry x="240" y="40" width="200" height="80" as="geometry" />
        </mxCell>
        <mxCell id="63qLR-Xfm-PJ3_UfegTe-26" value="" style="rounded=1;whiteSpace=wrap;html=1;fillColor=#fff2cc;strokeColor=#d6b656;gradientDirection=south;gradientColor=#ffd966;glass=1;shadow=1;" parent="1" vertex="1">
          <mxGeometry x="240" y="170" width="200" height="110" as="geometry" />
        </mxCell>
        <mxCell id="63qLR-Xfm-PJ3_UfegTe-27" value="&lt;font color=&quot;#000000&quot; style=&quot;font-size: 14px;&quot;&gt;&lt;b&gt;Data Quality&lt;/b&gt;&lt;/font&gt;" style="rounded=1;whiteSpace=wrap;html=1;fillColor=#f8cecc;strokeColor=#b85450;shadow=1;gradientColor=#ea6b66;gradientDirection=south;glass=1;" parent="1" vertex="1">
          <mxGeometry x="280" y="190" width="120" height="80" as="geometry" />
        </mxCell>
        <mxCell id="63qLR-Xfm-PJ3_UfegTe-30" value="&lt;b&gt;&lt;font color=&quot;#000033&quot; style=&quot;font-size: 14px;&quot;&gt;ERP + CRM&lt;/font&gt;&lt;/b&gt;" style="rounded=1;whiteSpace=wrap;html=1;fillColor=#e6d0de;strokeColor=#996185;shadow=1;gradientColor=#d5739d;gradientDirection=south;glass=1;" parent="1" vertex="1">
          <mxGeometry x="290" y="510" width="100" height="50" as="geometry" />
        </mxCell>
        <mxCell id="63qLR-Xfm-PJ3_UfegTe-31" value="&lt;b&gt;&lt;font color=&quot;#000033&quot; style=&quot;font-size: 14px;&quot;&gt;External&lt;br&gt;Sources&lt;br&gt;&lt;/font&gt;&lt;/b&gt;" style="rounded=1;whiteSpace=wrap;html=1;fillColor=#dae8fc;strokeColor=#6c8ebf;shadow=1;gradientColor=#7ea6e0;gradientDirection=south;glass=1;" parent="1" vertex="1">
          <mxGeometry x="290" y="580" width="100" height="50" as="geometry" />
        </mxCell>
        <mxCell id="63qLR-Xfm-PJ3_UfegTe-32" value="&lt;b&gt;&lt;font color=&quot;#000033&quot; style=&quot;font-size: 14px;&quot;&gt;Excel&lt;/font&gt;&lt;/b&gt;" style="rounded=1;whiteSpace=wrap;html=1;fillColor=#ffcd28;strokeColor=#d79b00;shadow=1;gradientColor=#ffa500;gradientDirection=south;glass=1;" parent="1" vertex="1">
          <mxGeometry x="290" y="650" width="100" height="50" as="geometry" />
        </mxCell>
        <mxCell id="63qLR-Xfm-PJ3_UfegTe-39" value="" style="edgeStyle=orthogonalEdgeStyle;rounded=0;orthogonalLoop=1;jettySize=auto;html=1;fillColor=#dae8fc;strokeColor=#6c8ebf;flowAnimation=1;strokeWidth=3;gradientColor=#7ea6e0;" parent="1" target="63qLR-Xfm-PJ3_UfegTe-11" edge="1">
          <mxGeometry relative="1" as="geometry">
            <mxPoint x="140" y="680.03" as="sourcePoint" />
            <mxPoint x="220" y="680.03" as="targetPoint" />
            <Array as="points">
              <mxPoint x="190" y="680" />
              <mxPoint x="190" y="680" />
            </Array>
          </mxGeometry>
        </mxCell>
        <mxCell id="63qLR-Xfm-PJ3_UfegTe-40" value="" style="edgeStyle=orthogonalEdgeStyle;rounded=0;orthogonalLoop=1;jettySize=auto;html=1;fillColor=#dae8fc;strokeColor=#6c8ebf;flowAnimation=1;strokeWidth=3;entryX=0.009;entryY=0.891;entryDx=0;entryDy=0;entryPerimeter=0;gradientColor=#7ea6e0;" parent="1" target="63qLR-Xfm-PJ3_UfegTe-11" edge="1">
          <mxGeometry relative="1" as="geometry">
            <mxPoint x="140" y="750.03" as="sourcePoint" />
            <mxPoint x="220" y="750.03" as="targetPoint" />
            <Array as="points" />
          </mxGeometry>
        </mxCell>
        <mxCell id="63qLR-Xfm-PJ3_UfegTe-43" style="edgeStyle=orthogonalEdgeStyle;rounded=0;orthogonalLoop=1;jettySize=auto;html=1;exitX=0.5;exitY=1;exitDx=0;exitDy=0;flowAnimation=1;fillColor=#ffcd28;strokeColor=#d79b00;strokeWidth=3;gradientColor=#ffa500;" parent="1" edge="1">
          <mxGeometry relative="1" as="geometry">
            <mxPoint x="339.57" y="120" as="sourcePoint" />
            <mxPoint x="340" y="170" as="targetPoint" />
          </mxGeometry>
        </mxCell>
        <mxCell id="63qLR-Xfm-PJ3_UfegTe-44" style="edgeStyle=orthogonalEdgeStyle;rounded=0;orthogonalLoop=1;jettySize=auto;html=1;exitX=0.5;exitY=1;exitDx=0;exitDy=0;flowAnimation=1;fillColor=#ffcd28;strokeColor=#d79b00;strokeWidth=3;gradientColor=#ffa500;" parent="1" edge="1">
          <mxGeometry relative="1" as="geometry">
            <mxPoint x="584.23" y="120" as="sourcePoint" />
            <mxPoint x="584.66" y="170" as="targetPoint" />
          </mxGeometry>
        </mxCell>
        <mxCell id="63qLR-Xfm-PJ3_UfegTe-45" style="edgeStyle=orthogonalEdgeStyle;rounded=0;orthogonalLoop=1;jettySize=auto;html=1;exitX=0.5;exitY=1;exitDx=0;exitDy=0;flowAnimation=1;fillColor=#ffcd28;strokeColor=#d79b00;strokeWidth=3;gradientColor=#ffa500;" parent="1" edge="1">
          <mxGeometry relative="1" as="geometry">
            <mxPoint x="829.23" y="120" as="sourcePoint" />
            <mxPoint x="829.66" y="170" as="targetPoint" />
          </mxGeometry>
        </mxCell>
        <mxCell id="63qLR-Xfm-PJ3_UfegTe-46" style="edgeStyle=orthogonalEdgeStyle;rounded=0;orthogonalLoop=1;jettySize=auto;html=1;exitX=0.5;exitY=1;exitDx=0;exitDy=0;flowAnimation=1;fillColor=#ffcd28;gradientColor=#ffa500;strokeColor=#d79b00;strokeWidth=3;" parent="1" edge="1">
          <mxGeometry relative="1" as="geometry">
            <mxPoint x="1069.23" y="120" as="sourcePoint" />
            <mxPoint x="1069.6599999999999" y="170" as="targetPoint" />
          </mxGeometry>
        </mxCell>
        <mxCell id="63qLR-Xfm-PJ3_UfegTe-47" style="edgeStyle=orthogonalEdgeStyle;rounded=0;orthogonalLoop=1;jettySize=auto;html=1;exitX=1.012;exitY=0.315;exitDx=0;exitDy=0;flowAnimation=1;fillColor=#dae8fc;strokeColor=#6c8ebf;strokeWidth=3;exitPerimeter=0;entryX=0;entryY=0.5;entryDx=0;entryDy=0;gradientColor=#7ea6e0;" parent="1" source="63qLR-Xfm-PJ3_UfegTe-11" target="63qLR-Xfm-PJ3_UfegTe-12" edge="1">
          <mxGeometry relative="1" as="geometry">
            <mxPoint x="339.55" y="280" as="sourcePoint" />
            <mxPoint x="490" y="542" as="targetPoint" />
            <Array as="points" />
          </mxGeometry>
        </mxCell>
        <mxCell id="63qLR-Xfm-PJ3_UfegTe-48" value="" style="edgeStyle=orthogonalEdgeStyle;rounded=0;orthogonalLoop=1;jettySize=auto;html=1;fillColor=#dae8fc;strokeColor=#6c8ebf;flowAnimation=1;strokeWidth=3;gradientColor=#7ea6e0;" parent="1" edge="1">
          <mxGeometry relative="1" as="geometry">
            <mxPoint x="140" y="470" as="sourcePoint" />
            <mxPoint x="240" y="470" as="targetPoint" />
            <Array as="points">
              <mxPoint x="200" y="470" />
              <mxPoint x="200" y="470" />
            </Array>
          </mxGeometry>
        </mxCell>
        <mxCell id="63qLR-Xfm-PJ3_UfegTe-49" value="" style="edgeStyle=orthogonalEdgeStyle;rounded=0;orthogonalLoop=1;jettySize=auto;html=1;fillColor=#dae8fc;strokeColor=#6c8ebf;flowAnimation=1;strokeWidth=3;gradientColor=#7ea6e0;" parent="1" edge="1">
          <mxGeometry relative="1" as="geometry">
            <mxPoint x="140" y="534.66" as="sourcePoint" />
            <mxPoint x="240" y="534.66" as="targetPoint" />
            <Array as="points">
              <mxPoint x="200" y="534.66" />
              <mxPoint x="200" y="534.66" />
            </Array>
          </mxGeometry>
        </mxCell>
        <mxCell id="63qLR-Xfm-PJ3_UfegTe-50" value="" style="edgeStyle=orthogonalEdgeStyle;rounded=0;orthogonalLoop=1;jettySize=auto;html=1;fillColor=#dae8fc;strokeColor=#6c8ebf;flowAnimation=1;strokeWidth=3;gradientColor=#7ea6e0;" parent="1" edge="1">
          <mxGeometry relative="1" as="geometry">
            <mxPoint x="140" y="604.66" as="sourcePoint" />
            <mxPoint x="240" y="604.66" as="targetPoint" />
            <Array as="points">
              <mxPoint x="200" y="604.66" />
              <mxPoint x="200" y="604.66" />
            </Array>
          </mxGeometry>
        </mxCell>
        <mxCell id="63qLR-Xfm-PJ3_UfegTe-51" value="" style="endArrow=classic;startArrow=classic;html=1;rounded=0;entryX=-0.021;entryY=0.095;entryDx=0;entryDy=0;entryPerimeter=0;fillColor=#e6d0de;gradientColor=#d5739d;strokeColor=#c90384;flowAnimation=1;strokeWidth=3;" parent="1" target="63qLR-Xfm-PJ3_UfegTe-12" edge="1">
          <mxGeometry width="50" height="50" relative="1" as="geometry">
            <mxPoint x="440" y="230" as="sourcePoint" />
            <mxPoint x="490" y="180" as="targetPoint" />
          </mxGeometry>
        </mxCell>
        <mxCell id="63qLR-Xfm-PJ3_UfegTe-52" value="" style="endArrow=classic;startArrow=classic;html=1;rounded=0;entryX=0.5;entryY=0;entryDx=0;entryDy=0;fillColor=#e6d0de;gradientColor=#d5739d;strokeColor=#c90384;flowAnimation=1;strokeWidth=3;exitX=0.5;exitY=1;exitDx=0;exitDy=0;" parent="1" source="63qLR-Xfm-PJ3_UfegTe-26" target="63qLR-Xfm-PJ3_UfegTe-11" edge="1">
          <mxGeometry width="50" height="50" relative="1" as="geometry">
            <mxPoint x="306.5" y="310.00000000000006" as="sourcePoint" />
            <mxPoint x="373.5" y="310.00000000000006" as="targetPoint" />
          </mxGeometry>
        </mxCell>
        <mxCell id="63qLR-Xfm-PJ3_UfegTe-61" value="" style="shape=cylinder3;whiteSpace=wrap;html=1;boundedLbl=1;backgroundOutline=1;size=15;shadow=1;gradientDirection=south;perimeterSpacing=0;fillColor=#fad9d5;strokeColor=#ae4132;gradientColor=#FF9933;" parent="1" vertex="1">
          <mxGeometry x="555" y="660" width="60" height="50" as="geometry" />
        </mxCell>
        <mxCell id="63qLR-Xfm-PJ3_UfegTe-62" value="" style="shape=cylinder3;whiteSpace=wrap;html=1;boundedLbl=1;backgroundOutline=1;size=15;shadow=1;gradientDirection=south;perimeterSpacing=0;fillColor=#fad9d5;strokeColor=#ae4132;gradientColor=#FF9933;" parent="1" vertex="1">
          <mxGeometry x="555" y="630" width="60" height="50" as="geometry" />
        </mxCell>
        <mxCell id="63qLR-Xfm-PJ3_UfegTe-63" value="" style="shape=cylinder3;whiteSpace=wrap;html=1;boundedLbl=1;backgroundOutline=1;size=15;shadow=1;gradientDirection=south;perimeterSpacing=0;fillColor=#fad9d5;strokeColor=#ae4132;gradientColor=#FF9933;" parent="1" vertex="1">
          <mxGeometry x="555" y="600" width="60" height="50" as="geometry" />
        </mxCell>
        <mxCell id="63qLR-Xfm-PJ3_UfegTe-68" value="" style="shape=cylinder3;whiteSpace=wrap;html=1;boundedLbl=1;backgroundOutline=1;size=15;shadow=1;gradientDirection=south;perimeterSpacing=0;fillColor=#b1ddf0;strokeColor=#10739e;gradientColor=#007FFF;" parent="1" vertex="1">
          <mxGeometry x="555" y="390" width="60" height="50" as="geometry" />
        </mxCell>
        <mxCell id="63qLR-Xfm-PJ3_UfegTe-69" value="" style="shape=cylinder3;whiteSpace=wrap;html=1;boundedLbl=1;backgroundOutline=1;size=15;shadow=1;gradientDirection=south;perimeterSpacing=0;fillColor=#b1ddf0;strokeColor=#10739e;gradientColor=#007FFF;" parent="1" vertex="1">
          <mxGeometry x="555" y="360" width="60" height="50" as="geometry" />
        </mxCell>
        <mxCell id="63qLR-Xfm-PJ3_UfegTe-70" value="&lt;b&gt;&lt;font style=&quot;font-size: 14px;&quot;&gt;Data&lt;br&gt;Warehouse&lt;/font&gt;&lt;/b&gt;" style="shape=cylinder3;whiteSpace=wrap;html=1;boundedLbl=1;backgroundOutline=1;size=15;shadow=1;gradientDirection=north;perimeterSpacing=0;fillColor=#dae8fc;strokeColor=#6c8ebf;gradientColor=#7ea6e0;" parent="1" vertex="1">
          <mxGeometry x="740" y="380" width="110" height="140" as="geometry" />
        </mxCell>
        <mxCell id="63qLR-Xfm-PJ3_UfegTe-73" value="" style="endArrow=classic;html=1;rounded=0;entryX=0.5;entryY=0.587;entryDx=0;entryDy=0;entryPerimeter=0;strokeWidth=2;flowAnimation=1;shadow=0;strokeColor=#00CC00;" parent="1" target="63qLR-Xfm-PJ3_UfegTe-12" edge="1">
          <mxGeometry width="50" height="50" relative="1" as="geometry">
            <mxPoint x="585" y="460" as="sourcePoint" />
            <mxPoint x="610" y="470" as="targetPoint" />
          </mxGeometry>
        </mxCell>
        <mxCell id="63qLR-Xfm-PJ3_UfegTe-74" value="&lt;span style=&quot;border-color: var(--border-color);&quot;&gt;&lt;font style=&quot;border-color: var(--border-color); font-size: 14px;&quot;&gt;&lt;b&gt;Staging Area&lt;/b&gt;&lt;/font&gt;&lt;/span&gt;" style="text;html=1;strokeColor=none;fillColor=none;align=center;verticalAlign=middle;whiteSpace=wrap;rounded=0;" parent="1" vertex="1">
          <mxGeometry x="554" y="250" width="60" height="30" as="geometry" />
        </mxCell>
        <mxCell id="63qLR-Xfm-PJ3_UfegTe-75" value="&lt;span style=&quot;border-color: var(--border-color);&quot;&gt;&lt;font style=&quot;border-color: var(--border-color); font-size: 14px;&quot;&gt;&lt;b&gt;ODS&lt;/b&gt;&lt;/font&gt;&lt;/span&gt;" style="text;html=1;strokeColor=none;fillColor=none;align=center;verticalAlign=middle;whiteSpace=wrap;rounded=0;shadow=1;" parent="1" vertex="1">
          <mxGeometry x="554" y="560" width="60" height="30" as="geometry" />
        </mxCell>
        <mxCell id="63qLR-Xfm-PJ3_UfegTe-76" value="" style="shape=cylinder3;whiteSpace=wrap;html=1;boundedLbl=1;backgroundOutline=1;size=15;shadow=1;gradientDirection=south;perimeterSpacing=0;fillColor=#b1ddf0;strokeColor=#10739e;gradientColor=#007FFF;" parent="1" vertex="1">
          <mxGeometry x="555" y="330" width="60" height="50" as="geometry" />
        </mxCell>
        <mxCell id="63qLR-Xfm-PJ3_UfegTe-77" value="" style="endArrow=classic;html=1;rounded=0;exitX=1;exitY=0.5;exitDx=0;exitDy=0;strokeWidth=3;strokeColor=#6c8ebf;flowAnimation=1;ignoreEdge=0;orthogonalLoop=0;orthogonal=0;comic=0;noJump=1;backgroundOutline=0;fixDash=1;fillColor=#dae8fc;gradientColor=#7ea6e0;" parent="1" source="63qLR-Xfm-PJ3_UfegTe-12" target="63qLR-Xfm-PJ3_UfegTe-13" edge="1">
          <mxGeometry width="50" height="50" relative="1" as="geometry">
            <mxPoint x="660" y="490" as="sourcePoint" />
            <mxPoint x="710" y="440" as="targetPoint" />
          </mxGeometry>
        </mxCell>
        <mxCell id="63qLR-Xfm-PJ3_UfegTe-78" value="&lt;font style=&quot;font-size: 10px;&quot;&gt;Data&lt;br&gt;Dictionary&lt;/font&gt;" style="shape=cylinder3;whiteSpace=wrap;html=1;boundedLbl=1;backgroundOutline=1;size=15;shadow=1;gradientDirection=north;perimeterSpacing=0;fillColor=#dae8fc;strokeColor=#6c8ebf;gradientColor=#7ea6e0;" parent="1" vertex="1">
          <mxGeometry x="720" y="250" width="60" height="70" as="geometry" />
        </mxCell>
        <mxCell id="63qLR-Xfm-PJ3_UfegTe-83" value="&lt;b&gt;C&lt;br&gt;&amp;nbsp; &amp;nbsp; 5&lt;/b&gt;" style="shape=cube;whiteSpace=wrap;html=1;boundedLbl=1;backgroundOutline=1;darkOpacity=0.05;darkOpacity2=0.1;flipH=1;fillColor=#dae8fc;gradientColor=#7ea6e0;strokeColor=#6c8ebf;size=10;shadow=1;gradientDirection=north;" parent="1" vertex="1">
          <mxGeometry x="883" y="200" width="50" height="50" as="geometry" />
        </mxCell>
        <mxCell id="63qLR-Xfm-PJ3_UfegTe-84" value="&lt;b style=&quot;border-color: var(--border-color);&quot;&gt;C&lt;br style=&quot;border-color: var(--border-color);&quot;&gt;&amp;nbsp; &amp;nbsp; 4&lt;/b&gt;" style="shape=cube;whiteSpace=wrap;html=1;boundedLbl=1;backgroundOutline=1;darkOpacity=0.05;darkOpacity2=0.1;flipH=1;fillColor=#dae8fc;gradientColor=#7ea6e0;strokeColor=#6c8ebf;size=10;shadow=1;gradientDirection=north;" parent="1" vertex="1">
          <mxGeometry x="883" y="290" width="50" height="50" as="geometry" />
        </mxCell>
        <mxCell id="63qLR-Xfm-PJ3_UfegTe-85" value="&lt;b style=&quot;border-color: var(--border-color);&quot;&gt;C&lt;br style=&quot;border-color: var(--border-color);&quot;&gt;&amp;nbsp; &amp;nbsp; 3&lt;/b&gt;" style="shape=cube;whiteSpace=wrap;html=1;boundedLbl=1;backgroundOutline=1;darkOpacity=0.05;darkOpacity2=0.1;flipH=1;fillColor=#dae8fc;gradientColor=#7ea6e0;strokeColor=#6c8ebf;size=10;shadow=1;gradientDirection=north;direction=south;" parent="1" vertex="1">
          <mxGeometry x="883" y="370" width="50" height="50" as="geometry" />
        </mxCell>
        <mxCell id="63qLR-Xfm-PJ3_UfegTe-86" value="&lt;b style=&quot;border-color: var(--border-color);&quot;&gt;C&lt;br style=&quot;border-color: var(--border-color);&quot;&gt;&amp;nbsp; &amp;nbsp; 4&lt;/b&gt;" style="shape=cube;whiteSpace=wrap;html=1;boundedLbl=1;backgroundOutline=1;darkOpacity=0.05;darkOpacity2=0.1;flipH=1;fillColor=#dae8fc;gradientColor=#7ea6e0;strokeColor=#6c8ebf;size=10;shadow=1;gradientDirection=north;" parent="1" vertex="1">
          <mxGeometry x="883" y="455" width="50" height="50" as="geometry" />
        </mxCell>
        <mxCell id="63qLR-Xfm-PJ3_UfegTe-87" value="&lt;b style=&quot;border-color: var(--border-color);&quot;&gt;C&lt;br style=&quot;border-color: var(--border-color);&quot;&gt;&amp;nbsp; &amp;nbsp; 5&lt;/b&gt;" style="shape=cube;whiteSpace=wrap;html=1;boundedLbl=1;backgroundOutline=1;darkOpacity=0.05;darkOpacity2=0.1;flipH=1;fillColor=#dae8fc;gradientColor=#7ea6e0;strokeColor=#6c8ebf;size=10;shadow=1;gradientDirection=north;" parent="1" vertex="1">
          <mxGeometry x="883" y="540" width="50" height="50" as="geometry" />
        </mxCell>
        <mxCell id="63qLR-Xfm-PJ3_UfegTe-88" value="&lt;b style=&quot;border-color: var(--border-color);&quot;&gt;C&lt;br style=&quot;border-color: var(--border-color);&quot;&gt;&amp;nbsp; &amp;nbsp; 6&lt;/b&gt;" style="shape=cube;whiteSpace=wrap;html=1;boundedLbl=1;backgroundOutline=1;darkOpacity=0.05;darkOpacity2=0.1;flipH=1;fillColor=#dae8fc;gradientColor=#7ea6e0;strokeColor=#6c8ebf;size=10;shadow=1;gradientDirection=north;" parent="1" vertex="1">
          <mxGeometry x="883" y="630" width="50" height="50" as="geometry" />
        </mxCell>
        <mxCell id="63qLR-Xfm-PJ3_UfegTe-89" value="&lt;b style=&quot;border-color: var(--border-color);&quot;&gt;C&lt;br style=&quot;border-color: var(--border-color);&quot;&gt;&amp;nbsp; &amp;nbsp; 7&lt;/b&gt;" style="shape=cube;whiteSpace=wrap;html=1;boundedLbl=1;backgroundOutline=1;darkOpacity=0.05;darkOpacity2=0.1;flipH=1;fillColor=#dae8fc;gradientColor=#7ea6e0;strokeColor=#6c8ebf;size=10;shadow=1;gradientDirection=north;" parent="1" vertex="1">
          <mxGeometry x="883" y="720" width="50" height="50" as="geometry" />
        </mxCell>
        <mxCell id="63qLR-Xfm-PJ3_UfegTe-90" value="&lt;font style=&quot;font-size: 10px;&quot;&gt;Data Base Marketing&lt;/font&gt;" style="shape=cylinder3;whiteSpace=wrap;html=1;boundedLbl=1;backgroundOutline=1;size=15;shadow=1;gradientDirection=north;perimeterSpacing=0;fillColor=#dae8fc;strokeColor=#6c8ebf;gradientColor=#7ea6e0;" parent="1" vertex="1">
          <mxGeometry x="800" y="220" width="60" height="70" as="geometry" />
        </mxCell>
        <mxCell id="63qLR-Xfm-PJ3_UfegTe-93" value="&lt;span style=&quot;font-size: 10px;&quot;&gt;Data Mart Quality&lt;/span&gt;" style="shape=cylinder3;whiteSpace=wrap;html=1;boundedLbl=1;backgroundOutline=1;size=15;shadow=1;gradientDirection=north;perimeterSpacing=0;fillColor=#dae8fc;strokeColor=#6c8ebf;gradientColor=#7ea6e0;" parent="1" vertex="1">
          <mxGeometry x="720" y="580" width="60" height="70" as="geometry" />
        </mxCell>
        <mxCell id="63qLR-Xfm-PJ3_UfegTe-94" value="&lt;span style=&quot;font-size: 10px;&quot;&gt;Business Rules&lt;/span&gt;" style="shape=cylinder3;whiteSpace=wrap;html=1;boundedLbl=1;backgroundOutline=1;size=15;shadow=1;gradientDirection=north;perimeterSpacing=0;fillColor=#dae8fc;strokeColor=#6c8ebf;gradientColor=#7ea6e0;" parent="1" vertex="1">
          <mxGeometry x="760" y="680" width="60" height="70" as="geometry" />
        </mxCell>
        <mxCell id="63qLR-Xfm-PJ3_UfegTe-95" value="&lt;span style=&quot;font-size: 10px;&quot;&gt;Data Mart Scenarios&lt;/span&gt;" style="shape=cylinder3;whiteSpace=wrap;html=1;boundedLbl=1;backgroundOutline=1;size=15;shadow=1;gradientDirection=north;perimeterSpacing=0;fillColor=#dae8fc;strokeColor=#6c8ebf;gradientColor=#7ea6e0;" parent="1" vertex="1">
          <mxGeometry x="800" y="590" width="60" height="70" as="geometry" />
        </mxCell>
        <mxCell id="63qLR-Xfm-PJ3_UfegTe-99" value="" style="endArrow=none;html=1;rounded=0;entryX=0.5;entryY=1;entryDx=0;entryDy=0;entryPerimeter=0;flowAnimation=1;strokeWidth=2;exitX=0.5;exitY=0;exitDx=0;exitDy=0;exitPerimeter=0;shadow=0;strokeColor=#2D7600;fillColor=#60a917;" parent="1" source="63qLR-Xfm-PJ3_UfegTe-93" target="63qLR-Xfm-PJ3_UfegTe-70" edge="1">
          <mxGeometry width="50" height="50" relative="1" as="geometry">
            <mxPoint x="760" y="580" as="sourcePoint" />
            <mxPoint x="765" y="420" as="targetPoint" />
          </mxGeometry>
        </mxCell>
        <mxCell id="63qLR-Xfm-PJ3_UfegTe-101" value="" style="endArrow=none;html=1;rounded=0;entryX=0.5;entryY=1;entryDx=0;entryDy=0;entryPerimeter=0;flowAnimation=1;strokeWidth=2;exitX=0.5;exitY=0;exitDx=0;exitDy=0;exitPerimeter=0;shadow=0;strokeColor=#2D7600;fillColor=#60a917;" parent="1" source="63qLR-Xfm-PJ3_UfegTe-95" target="63qLR-Xfm-PJ3_UfegTe-70" edge="1">
          <mxGeometry width="50" height="50" relative="1" as="geometry">
            <mxPoint x="760" y="590" as="sourcePoint" />
            <mxPoint x="805" y="530" as="targetPoint" />
          </mxGeometry>
        </mxCell>
        <mxCell id="63qLR-Xfm-PJ3_UfegTe-105" value="" style="endArrow=none;html=1;rounded=0;flowAnimation=1;strokeWidth=2;shadow=0;fillColor=#1ba1e2;strokeColor=#006EAF;entryX=0;entryY=0;entryDx=50;entryDy=30;entryPerimeter=0;" parent="1" source="63qLR-Xfm-PJ3_UfegTe-95" target="63qLR-Xfm-PJ3_UfegTe-88" edge="1">
          <mxGeometry width="50" height="50" relative="1" as="geometry">
            <mxPoint x="825" y="550" as="sourcePoint" />
            <mxPoint x="780" y="610" as="targetPoint" />
          </mxGeometry>
        </mxCell>
        <mxCell id="63qLR-Xfm-PJ3_UfegTe-107" value="" style="endArrow=none;html=1;rounded=0;flowAnimation=1;strokeWidth=2;exitX=0.997;exitY=0.464;exitDx=0;exitDy=0;exitPerimeter=0;entryX=0;entryY=0;entryDx=50;entryDy=30;entryPerimeter=0;shadow=0;strokeColor=#006EAF;fillColor=#1ba1e2;" parent="1" source="63qLR-Xfm-PJ3_UfegTe-70" target="63qLR-Xfm-PJ3_UfegTe-88" edge="1">
          <mxGeometry width="50" height="50" relative="1" as="geometry">
            <mxPoint x="800" y="520" as="sourcePoint" />
            <mxPoint x="790" y="620" as="targetPoint" />
          </mxGeometry>
        </mxCell>
        <mxCell id="63qLR-Xfm-PJ3_UfegTe-109" value="" style="endArrow=none;html=1;rounded=0;entryX=0;entryY=0;entryDx=50;entryDy=30;entryPerimeter=0;flowAnimation=1;strokeWidth=2;exitX=1.006;exitY=0.476;exitDx=0;exitDy=0;exitPerimeter=0;shadow=0;strokeColor=#006EAF;fillColor=#1ba1e2;" parent="1" source="63qLR-Xfm-PJ3_UfegTe-70" target="63qLR-Xfm-PJ3_UfegTe-87" edge="1">
          <mxGeometry width="50" height="50" relative="1" as="geometry">
            <mxPoint x="845" y="570" as="sourcePoint" />
            <mxPoint x="800" y="630" as="targetPoint" />
          </mxGeometry>
        </mxCell>
        <mxCell id="63qLR-Xfm-PJ3_UfegTe-111" value="" style="endArrow=none;html=1;rounded=0;entryX=0;entryY=0;entryDx=50;entryDy=30;entryPerimeter=0;flowAnimation=1;strokeWidth=2;exitX=1.006;exitY=0.476;exitDx=0;exitDy=0;exitPerimeter=0;shadow=0;strokeColor=#006EAF;fillColor=#1ba1e2;" parent="1" source="63qLR-Xfm-PJ3_UfegTe-70" target="63qLR-Xfm-PJ3_UfegTe-86" edge="1">
          <mxGeometry width="50" height="50" relative="1" as="geometry">
            <mxPoint x="890" y="470" as="sourcePoint" />
            <mxPoint x="845" y="530" as="targetPoint" />
          </mxGeometry>
        </mxCell>
        <mxCell id="63qLR-Xfm-PJ3_UfegTe-113" value="" style="endArrow=none;html=1;rounded=0;flowAnimation=1;strokeWidth=2;exitX=0.5;exitY=0;exitDx=0;exitDy=0;exitPerimeter=0;entryX=0.5;entryY=1;entryDx=0;entryDy=0;entryPerimeter=0;shadow=0;strokeColor=#2D7600;fillColor=#60a917;" parent="1" source="63qLR-Xfm-PJ3_UfegTe-94" target="63qLR-Xfm-PJ3_UfegTe-70" edge="1">
          <mxGeometry width="50" height="50" relative="1" as="geometry">
            <mxPoint x="800" y="685" as="sourcePoint" />
            <mxPoint x="790" y="520" as="targetPoint" />
          </mxGeometry>
        </mxCell>
        <mxCell id="63qLR-Xfm-PJ3_UfegTe-114" value="" style="endArrow=none;html=1;rounded=0;flowAnimation=1;strokeWidth=2;exitX=1;exitY=1;exitDx=0;exitDy=-15;exitPerimeter=0;entryX=0;entryY=0;entryDx=45;entryDy=5;entryPerimeter=0;shadow=0;strokeColor=#006EAF;fillColor=#1ba1e2;" parent="1" source="63qLR-Xfm-PJ3_UfegTe-95" target="63qLR-Xfm-PJ3_UfegTe-89" edge="1">
          <mxGeometry width="50" height="50" relative="1" as="geometry">
            <mxPoint x="870" y="653" as="sourcePoint" />
            <mxPoint x="900" y="670" as="targetPoint" />
          </mxGeometry>
        </mxCell>
        <mxCell id="63qLR-Xfm-PJ3_UfegTe-115" value="" style="endArrow=none;html=1;rounded=0;entryX=0;entryY=0;entryDx=45;entryDy=5;entryPerimeter=0;flowAnimation=1;strokeWidth=2;exitX=0.998;exitY=0.458;exitDx=0;exitDy=0;exitPerimeter=0;shadow=0;strokeColor=#006EAF;fillColor=#1ba1e2;" parent="1" source="63qLR-Xfm-PJ3_UfegTe-70" target="63qLR-Xfm-PJ3_UfegTe-85" edge="1">
          <mxGeometry width="50" height="50" relative="1" as="geometry">
            <mxPoint x="861" y="457" as="sourcePoint" />
            <mxPoint x="900" y="495" as="targetPoint" />
          </mxGeometry>
        </mxCell>
        <mxCell id="63qLR-Xfm-PJ3_UfegTe-116" value="" style="endArrow=none;html=1;rounded=0;entryX=0;entryY=0;entryDx=50;entryDy=30;entryPerimeter=0;flowAnimation=1;strokeWidth=2;exitX=1.011;exitY=0.448;exitDx=0;exitDy=0;exitPerimeter=0;shadow=0;strokeColor=#006EAF;fillColor=#1ba1e2;" parent="1" source="63qLR-Xfm-PJ3_UfegTe-70" target="63qLR-Xfm-PJ3_UfegTe-84" edge="1">
          <mxGeometry width="50" height="50" relative="1" as="geometry">
            <mxPoint x="860" y="454" as="sourcePoint" />
            <mxPoint x="900" y="410" as="targetPoint" />
          </mxGeometry>
        </mxCell>
        <mxCell id="63qLR-Xfm-PJ3_UfegTe-117" value="" style="endArrow=none;html=1;rounded=0;flowAnimation=1;strokeWidth=2;exitX=1;exitY=1;exitDx=0;exitDy=0;exitPerimeter=0;shadow=0;strokeColor=#006EAF;fillColor=#1ba1e2;entryX=1;entryY=1;entryDx=0;entryDy=0;entryPerimeter=0;" parent="1" edge="1" target="63qLR-Xfm-PJ3_UfegTe-83">
          <mxGeometry width="50" height="50" relative="1" as="geometry">
            <mxPoint x="850" y="440" as="sourcePoint" />
            <mxPoint x="900" y="330" as="targetPoint" />
          </mxGeometry>
        </mxCell>
        <mxCell id="63qLR-Xfm-PJ3_UfegTe-119" value="" style="endArrow=none;html=1;rounded=0;flowAnimation=1;strokeWidth=2;exitX=0.5;exitY=1;exitDx=0;exitDy=0;exitPerimeter=0;entryX=0.5;entryY=0;entryDx=0;entryDy=0;entryPerimeter=0;shadow=0;strokeColor=#2D7600;fillColor=#60a917;" parent="1" source="63qLR-Xfm-PJ3_UfegTe-90" target="63qLR-Xfm-PJ3_UfegTe-70" edge="1">
          <mxGeometry width="50" height="50" relative="1" as="geometry">
            <mxPoint x="900" y="260" as="sourcePoint" />
            <mxPoint x="860" y="450" as="targetPoint" />
          </mxGeometry>
        </mxCell>
        <mxCell id="63qLR-Xfm-PJ3_UfegTe-120" value="" style="endArrow=none;html=1;rounded=0;flowAnimation=1;strokeWidth=2;exitX=0.5;exitY=1;exitDx=0;exitDy=0;exitPerimeter=0;entryX=0.5;entryY=0;entryDx=0;entryDy=0;entryPerimeter=0;shadow=0;strokeColor=#2D7600;fillColor=#60a917;" parent="1" source="63qLR-Xfm-PJ3_UfegTe-78" target="63qLR-Xfm-PJ3_UfegTe-70" edge="1">
          <mxGeometry width="50" height="50" relative="1" as="geometry">
            <mxPoint x="840" y="300" as="sourcePoint" />
            <mxPoint x="805" y="390" as="targetPoint" />
          </mxGeometry>
        </mxCell>
        <mxCell id="63qLR-Xfm-PJ3_UfegTe-121" value="" style="endArrow=classic;html=1;rounded=0;strokeWidth=3;strokeColor=#6c8ebf;flowAnimation=1;ignoreEdge=0;orthogonalLoop=0;orthogonal=0;comic=0;noJump=1;backgroundOutline=0;fixDash=1;fillColor=#dae8fc;entryX=0.02;entryY=0.491;entryDx=0;entryDy=0;entryPerimeter=0;gradientColor=#7ea6e0;" parent="1" source="63qLR-Xfm-PJ3_UfegTe-13" target="63qLR-Xfm-PJ3_UfegTe-14" edge="1">
          <mxGeometry width="50" height="50" relative="1" as="geometry">
            <mxPoint x="950" y="480.5" as="sourcePoint" />
            <mxPoint x="1000" y="480" as="targetPoint" />
          </mxGeometry>
        </mxCell>
        <mxCell id="63qLR-Xfm-PJ3_UfegTe-123" value="" style="endArrow=classic;html=1;rounded=0;strokeWidth=3;strokeColor=#6c8ebf;flowAnimation=1;ignoreEdge=0;orthogonalLoop=0;orthogonal=0;comic=0;noJump=1;backgroundOutline=0;fixDash=1;fillColor=#dae8fc;entryX=0.02;entryY=0.491;entryDx=0;entryDy=0;entryPerimeter=0;exitX=1;exitY=0.364;exitDx=0;exitDy=0;exitPerimeter=0;gradientColor=#7ea6e0;" parent="1" source="63qLR-Xfm-PJ3_UfegTe-13" edge="1">
          <mxGeometry width="50" height="50" relative="1" as="geometry">
            <mxPoint x="960" y="394" as="sourcePoint" />
            <mxPoint x="1009.6" y="394.09000000000003" as="targetPoint" />
          </mxGeometry>
        </mxCell>
        <mxCell id="63qLR-Xfm-PJ3_UfegTe-124" value="" style="endArrow=classic;html=1;rounded=0;strokeWidth=3;strokeColor=#6c8ebf;flowAnimation=1;ignoreEdge=0;orthogonalLoop=0;orthogonal=0;comic=0;noJump=1;backgroundOutline=0;fixDash=1;fillColor=#dae8fc;entryX=0.02;entryY=0.491;entryDx=0;entryDy=0;entryPerimeter=0;exitX=1;exitY=0.364;exitDx=0;exitDy=0;exitPerimeter=0;gradientColor=#7ea6e0;" parent="1" edge="1">
          <mxGeometry width="50" height="50" relative="1" as="geometry">
            <mxPoint x="950" y="319.90999999999997" as="sourcePoint" />
            <mxPoint x="1009.6" y="320" as="targetPoint" />
          </mxGeometry>
        </mxCell>
        <mxCell id="63qLR-Xfm-PJ3_UfegTe-125" value="" style="endArrow=classic;html=1;rounded=0;strokeWidth=3;strokeColor=#6c8ebf;flowAnimation=1;ignoreEdge=0;orthogonalLoop=0;orthogonal=0;comic=0;noJump=1;backgroundOutline=0;fixDash=1;fillColor=#dae8fc;entryX=0.02;entryY=0.491;entryDx=0;entryDy=0;entryPerimeter=0;exitX=1;exitY=0.364;exitDx=0;exitDy=0;exitPerimeter=0;gradientColor=#7ea6e0;" parent="1" edge="1">
          <mxGeometry width="50" height="50" relative="1" as="geometry">
            <mxPoint x="950" y="229.99999999999997" as="sourcePoint" />
            <mxPoint x="1009.6" y="230.09" as="targetPoint" />
          </mxGeometry>
        </mxCell>
        <mxCell id="63qLR-Xfm-PJ3_UfegTe-126" value="" style="endArrow=classic;html=1;rounded=0;strokeWidth=3;strokeColor=#6c8ebf;flowAnimation=1;ignoreEdge=0;orthogonalLoop=0;orthogonal=0;comic=0;noJump=1;backgroundOutline=0;fixDash=1;fillColor=#dae8fc;entryX=0.02;entryY=0.491;entryDx=0;entryDy=0;entryPerimeter=0;exitX=1;exitY=0.364;exitDx=0;exitDy=0;exitPerimeter=0;gradientColor=#7ea6e0;" parent="1" edge="1">
          <mxGeometry width="50" height="50" relative="1" as="geometry">
            <mxPoint x="950" y="560" as="sourcePoint" />
            <mxPoint x="1009.6" y="560.09" as="targetPoint" />
          </mxGeometry>
        </mxCell>
        <mxCell id="63qLR-Xfm-PJ3_UfegTe-129" value="" style="endArrow=classic;startArrow=classic;html=1;rounded=0;fillColor=#e6d0de;gradientColor=#d5739d;strokeColor=#c90384;flowAnimation=1;strokeWidth=3;exitX=1.006;exitY=0.776;exitDx=0;exitDy=0;exitPerimeter=0;entryX=0.004;entryY=0.77;entryDx=0;entryDy=0;entryPerimeter=0;" parent="1" source="63qLR-Xfm-PJ3_UfegTe-13" target="63qLR-Xfm-PJ3_UfegTe-14" edge="1">
          <mxGeometry width="50" height="50" relative="1" as="geometry">
            <mxPoint x="1010" y="646" as="sourcePoint" />
            <mxPoint x="1010" y="654" as="targetPoint" />
          </mxGeometry>
        </mxCell>
        <mxCell id="63qLR-Xfm-PJ3_UfegTe-133" value="&lt;font color=&quot;#000033&quot;&gt;&lt;span style=&quot;font-size: 14px;&quot;&gt;&lt;b&gt;Drilling&lt;/b&gt;&lt;/span&gt;&lt;/font&gt;" style="rounded=1;whiteSpace=wrap;html=1;fillColor=#76608a;strokeColor=#432D57;glass=1;gradientDirection=north;shadow=1;fontColor=#ffffff;gradientColor=#CC99FF;" parent="1" vertex="1">
          <mxGeometry x="1020" y="208" width="120" height="60" as="geometry" />
        </mxCell>
        <mxCell id="63qLR-Xfm-PJ3_UfegTe-134" value="&lt;b&gt;&lt;font color=&quot;#000033&quot; style=&quot;font-size: 14px;&quot;&gt;Reports&lt;/font&gt;&lt;/b&gt;" style="rounded=1;whiteSpace=wrap;html=1;fillColor=#76608a;strokeColor=#432D57;glass=1;gradientDirection=north;shadow=1;fontColor=#ffffff;gradientColor=#CC99FF;" parent="1" vertex="1">
          <mxGeometry x="1020" y="293" width="120" height="60" as="geometry" />
        </mxCell>
        <mxCell id="63qLR-Xfm-PJ3_UfegTe-135" value="&lt;b&gt;&lt;font color=&quot;#000033&quot; style=&quot;font-size: 14px;&quot;&gt;Statistical Analysis&lt;/font&gt;&lt;/b&gt;" style="rounded=1;whiteSpace=wrap;html=1;fillColor=#76608a;strokeColor=#432D57;glass=1;gradientDirection=north;shadow=1;fontColor=#ffffff;gradientColor=#CC99FF;" parent="1" vertex="1">
          <mxGeometry x="1018" y="378" width="122" height="60" as="geometry" />
        </mxCell>
        <mxCell id="63qLR-Xfm-PJ3_UfegTe-136" value="&lt;b&gt;&lt;font color=&quot;#000033&quot; style=&quot;font-size: 14px;&quot;&gt;Multidimensional&lt;br&gt;Analyzes&lt;br&gt;&lt;/font&gt;&lt;/b&gt;" style="rounded=1;whiteSpace=wrap;html=1;fillColor=#76608a;strokeColor=#432D57;glass=1;gradientDirection=north;shadow=1;fontColor=#ffffff;gradientColor=#CC99FF;" parent="1" vertex="1">
          <mxGeometry x="1017.5" y="460" width="122.5" height="60" as="geometry" />
        </mxCell>
        <mxCell id="63qLR-Xfm-PJ3_UfegTe-138" value="&lt;b&gt;&lt;font color=&quot;#000033&quot; style=&quot;font-size: 14px;&quot;&gt;Data Mining&lt;/font&gt;&lt;/b&gt;" style="rounded=1;whiteSpace=wrap;html=1;fillColor=#76608a;strokeColor=#432D57;glass=1;gradientDirection=north;shadow=1;fontColor=#ffffff;gradientColor=#CC99FF;" parent="1" vertex="1">
          <mxGeometry x="1017.5" y="540" width="122.5" height="60" as="geometry" />
        </mxCell>
        <mxCell id="63qLR-Xfm-PJ3_UfegTe-139" value="&lt;b&gt;&lt;font color=&quot;#000033&quot; style=&quot;font-size: 14px;&quot;&gt;Scenario Formation&lt;/font&gt;&lt;/b&gt;" style="rounded=1;whiteSpace=wrap;html=1;fillColor=#76608a;strokeColor=#432D57;glass=1;gradientDirection=north;shadow=1;fontColor=#ffffff;gradientColor=#CC99FF;" parent="1" vertex="1">
          <mxGeometry x="1020" y="623" width="120" height="60" as="geometry" />
        </mxCell>
        <mxCell id="63qLR-Xfm-PJ3_UfegTe-140" value="&lt;b&gt;&lt;font color=&quot;#000033&quot; style=&quot;font-size: 14px;&quot;&gt;Quality&lt;/font&gt;&lt;/b&gt;" style="rounded=1;whiteSpace=wrap;html=1;fillColor=#76608a;strokeColor=#432D57;glass=1;gradientDirection=north;shadow=1;fontColor=#ffffff;gradientColor=#CC99FF;" parent="1" vertex="1">
          <mxGeometry x="1020" y="703" width="120" height="60" as="geometry" />
        </mxCell>
        <mxCell id="63qLR-Xfm-PJ3_UfegTe-142" value="" style="endArrow=classic;startArrow=classic;html=1;rounded=0;fillColor=#e6d0de;gradientColor=#d5739d;strokeColor=#c90384;flowAnimation=1;strokeWidth=3;exitX=1.006;exitY=0.776;exitDx=0;exitDy=0;exitPerimeter=0;entryX=0.004;entryY=0.77;entryDx=0;entryDy=0;entryPerimeter=0;" parent="1" edge="1">
          <mxGeometry width="50" height="50" relative="1" as="geometry">
            <mxPoint x="951" y="740.12" as="sourcePoint" />
            <mxPoint x="1010" y="741.12" as="targetPoint" />
          </mxGeometry>
        </mxCell>
        <mxCell id="63qLR-Xfm-PJ3_UfegTe-146" value="&lt;div style=&quot;&quot;&gt;&lt;font color=&quot;#ffffff&quot;&gt;&lt;span style=&quot;background-color: initial; font-size: 36px;&quot;&gt;Business&lt;/span&gt;&lt;br&gt;&lt;/font&gt;&lt;/div&gt;&lt;font color=&quot;#ffffff&quot; style=&quot;font-size: 36px;&quot;&gt;&lt;div style=&quot;&quot;&gt;&lt;span style=&quot;background-color: initial;&quot;&gt;Inteligence&lt;/span&gt;&lt;/div&gt;&lt;div style=&quot;&quot;&gt;&lt;span style=&quot;background-color: initial;&quot;&gt;(BI)&lt;/span&gt;&lt;/div&gt;&lt;/font&gt;" style="text;html=1;fontSize=24;fontStyle=1;verticalAlign=middle;align=center;glass=0;shadow=1;fillColor=none;strokeColor=none;" parent="1" vertex="1">
          <mxGeometry x="10" y="25" width="220" height="165" as="geometry" />
        </mxCell>
      </root>
    </mxGraphModel>
  </diagram>
</mxfile>
